<?xml version="1.0" encoding="UTF-8"?>
<svg id="Layer_1" data-name="Layer 1" xmlns="http://www.w3.org/2000/svg" viewBox="0 0 33 33">
  <defs>
    <style>
      .cls-1 {
        fill: #c99f80;
      }
    </style>
  </defs>
  <path class="cls-1" d="m4.71,0C2.11,0,0,2.11,0,4.71v23.57c0,2.6,2.11,4.71,4.71,4.71h7.23v-10.74h-3.89v-5.76h3.89v-2.48c0-6.42,2.9-9.39,9.21-9.39,1.19,0,3.26.24,4.1.47v5.22c-.44-.04-1.22-.07-2.18-.07-3.09,0-4.29,1.17-4.29,4.21v2.05h6.16l-1.06,5.76h-5.1v10.74h9.5c2.6,0,4.71-2.11,4.71-4.71V4.71c0-2.6-2.11-4.71-4.71-4.71H4.71Z"/>
</svg>