<?xml version="1.0" encoding="UTF-8"?>
<svg id="Layer_1" data-name="Layer 1" xmlns="http://www.w3.org/2000/svg" viewBox="0 0 33 33">
  <defs>
    <style>
      .cls-1 {
        fill: #c99f80;
      }
    </style>
  </defs>
  <path class="cls-1" d="m14.32,13.24c-.43.29-.8.66-1.08,1.08-.29.43-.49.91-.59,1.42-.2,1.02,0,2.08.59,2.95.58.87,1.48,1.47,2.5,1.67,1.02.2,2.08,0,2.95-.59.87-.58,1.47-1.48,1.67-2.5.2-1.02,0-2.08-.59-2.95-.58-.87-1.48-1.47-2.5-1.67-1.02-.2-2.08,0-2.95.59Zm10.48-5.04c-.38-.38-.85-.69-1.36-.88-1.33-.52-4.24-.5-6.12-.48-.3,0-.58,0-.83,0s-.53,0-.84,0c-1.88-.02-4.77-.05-6.11.48-.51.2-.96.5-1.36.88-.39.38-.69.85-.88,1.36-.52,1.33-.49,4.25-.48,6.13,0,.3,0,.58,0,.82s0,.52,0,.82c-.01,1.88-.04,4.8.48,6.13.2.51.5.97.88,1.36.38.39.85.69,1.36.88,1.33.52,4.24.5,6.12.48.3,0,.58,0,.82,0s.53,0,.84,0c1.88.02,4.77.05,6.11-.48.51-.2.97-.5,1.36-.88.39-.38.69-.85.88-1.36.53-1.33.5-4.23.48-6.11,0-.31,0-.6,0-.84s0-.52,0-.84c.02-1.88.05-4.78-.48-6.11-.2-.51-.5-.96-.88-1.36h0Zm-4.94,3.29c1.33.89,2.26,2.27,2.57,3.85.31,1.57-.01,3.2-.9,4.54-.44.66-1.01,1.23-1.67,1.67-.66.44-1.4.75-2.18.9-1.57.31-3.2-.01-4.54-.9-1.33-.89-2.26-2.27-2.57-3.84-.31-1.57.01-3.2.9-4.53.89-1.33,2.27-2.26,3.84-2.57,1.57-.31,3.2.01,4.54.9h0Zm2.15-.1c-.23-.15-.41-.38-.52-.63-.11-.26-.13-.54-.08-.82.05-.28.19-.52.38-.72.19-.2.45-.33.72-.38.27-.05.56-.03.82.08.26.11.48.29.63.52.15.23.24.5.24.78,0,.18-.04.37-.1.54-.07.17-.18.32-.3.46-.13.13-.29.24-.46.31-.17.07-.35.11-.54.11-.28,0-.55-.08-.78-.24h0Zm10.99-6.67c0-2.6-2.11-4.71-4.71-4.71H4.71C2.11,0,0,2.11,0,4.71v23.57c0,2.6,2.11,4.71,4.71,4.71h23.57c2.6,0,4.71-2.11,4.71-4.71V4.71Zm-6.7,21.58c-1.38,1.38-3.05,1.81-4.94,1.91-1.94.11-7.78.11-9.72,0-1.89-.1-3.56-.53-4.94-1.91-1.38-1.38-1.81-3.05-1.9-4.94-.11-1.94-.11-7.78,0-9.72.1-1.89.52-3.56,1.9-4.94,1.38-1.38,3.06-1.81,4.94-1.9,1.94-.11,7.78-.11,9.72,0,1.89.1,3.56.52,4.94,1.9,1.38,1.38,1.81,3.05,1.9,4.94.11,1.94.11,7.76,0,9.72-.1,1.89-.52,3.56-1.9,4.94h0Z"/>
</svg>