<?xml version="1.0" encoding="UTF-8"?>
<svg id="Layer_1" data-name="Layer 1" xmlns="http://www.w3.org/2000/svg" viewBox="0 0 21.08 429.49">
  <defs>
    <style>
      .cls-1 {
        fill: #c99f80;
        stroke-width: 0px;
      }

      .cls-2 {
        fill: none;
        stroke: #c99f80;
        stroke-width: 2px;
      }
    </style>
  </defs>
  <path class="cls-2" d="M10.39,61.49v300.5"/>
  <path class="cls-1" d="M9.17.51c.68-.68,1.78-.68,2.45,0l8.66,8.66c.68.68.68,1.78,0,2.45-.68.68-1.78.68-2.45,0l-7.44-7.44-7.44,7.43c-.68.68-1.78.68-2.45,0-.68-.68-.68-1.78,0-2.45L9.17.5h0Z"/>
  <path class="cls-1" d="M11.63,429.02c-.7.66-1.79.63-2.45-.07l-8.41-8.91c-.66-.7-.63-1.79.07-2.45.7-.66,1.79-.63,2.45.07l7.22,7.65,7.65-7.21c.7-.66,1.79-.63,2.45.07.66.7.63,1.79-.07,2.45l-8.91,8.41h0Z"/>
</svg>