<?xml version="1.0" encoding="UTF-8"?>
<svg id="Layer_1" data-name="Layer 1" xmlns="http://www.w3.org/2000/svg" viewBox="0 0 241.93 375.33">
  <defs>
    <style>
      .cls-1 {
        stroke-width: 0px;
      }

      .cls-1, .cls-2 {
        fill: #c99f80;
      }

      .cls-2, .cls-3 {
        stroke: #c99f80;
        stroke-miterlimit: 10;
        stroke-width: 5px;
      }

      .cls-3 {
        fill: #9a9234;
      }
    </style>
  </defs>
  <g>
    <path class="cls-1" d="M241.93,248.61c-.14-36.75-20.17-89.27-59.57-156.14C153.01,42.66,123.27,3.04,122.97,2.65l-2-2.65-1.99,2.65c-.3.39-30.05,40.01-59.39,89.82-3.48,5.91-6.81,11.7-9.99,17.39,1.6.43,3.18.9,4.78,1.3.09.02.17.07.26.09C82.39,61.76,112.96,19.27,120.97,8.36c15.45,21.05,114.93,159.7,115.95,239.4,1.68.22,3.35.53,5.02.84Z"/>
    <path class="cls-1" d="M237.4,264.98c-.52.02-1-.06-1.44-.18-7.42,59.47-56.16,105.53-114.99,105.53-63.94,0-115.97-54.42-115.97-121.33,0-31.89,16.17-73.51,36.53-113.29-.45-.07-.9-.22-1.34-.43-.38-.06-.76-.14-1.15-.28-.82-.28-1.61-.63-2.34-1.06C12.34,181.59,0,220.18,0,249c0,69.66,54.27,126.33,120.97,126.33,61.63,0,112.63-48.37,120.04-110.66-1.2.15-2.4.27-3.61.32Z"/>
  </g>
  <path class="cls-1" d="M120.7,287.92c-23.2,0-42.07-18.88-42.07-42.08,0-29.55,38.38-86.08,40.01-88.47l2.07-3.03,2.06,3.04c1.64,2.41,40.17,59.43,40.01,88.48h0c-.13,23.19-19,42.06-42.08,42.06ZM120.69,163.31c-8.08,12.35-37.07,58.31-37.07,82.54,0,20.44,16.63,37.08,37.07,37.08s36.96-16.64,37.08-37.09c.13-23.81-28.98-70.11-37.08-82.53Z"/>
  <g>
    <path class="cls-1" d="M133.85,243.94c0,7.26-5.89,13.15-13.15,13.15s-13.15-5.89-13.15-13.15,13.15-26.19,13.15-26.19c0,0,13.15,18.93,13.15,26.19Z"/>
    <path class="cls-1" d="M120.7,259.59c-8.63,0-15.65-7.02-15.65-15.65,0-7.82,12.2-25.61,13.6-27.62l2.05-2.96,2.05,2.96c1.39,2,13.6,19.8,13.6,27.62,0,8.63-7.02,15.65-15.65,15.65ZM120.7,222.23c-4.76,7.28-10.65,17.62-10.65,21.71,0,5.87,4.78,10.65,10.65,10.65s10.65-4.78,10.65-10.65c0-4.1-5.88-14.44-10.65-21.71Z"/>
  </g>
  <g>
    <path class="cls-1" d="M120.95,86.9c3.94,5.99,13.13,20.34,23.55,39.06,1.37-1.13,2.98-1.88,4.68-2.13-13.5-24.21-25.03-41.17-26.15-42.8l-2.04-2.98-2.07,2.95c-.2.28-20.1,28.77-38.6,64.75-19.35,37.63-30.12,69.15-32.19,94.07h5.04c5.08-57.17,56.71-136.5,67.77-152.91Z"/>
    <path class="cls-1" d="M194.45,247.7c-2.66-36.48-21.69-79.82-39.44-113.19-.47.33-.98.58-1.55.74l-.77.1c-.71.58-1.6.9-2.51,1.02,17.65,33.15,36.69,76.23,39.28,111.68,1.43,19.67-7.19,42.66-21.97,58.55-8.23,8.85-21.8,19.22-41.04,20.99.01.21.03.42.02.64-.03.65-.14,1.27-.26,1.89.03.18.06.4.08.7.18.6.22,1.21.13,1.81,21.05-1.77,35.81-13.04,44.73-22.63,15.68-16.87,24.82-41.33,23.29-62.32Z"/>
    <path class="cls-1" d="M112.47,331.27c-.05-1.21.16-2.32.15-3.37,0-.05.01-.09.01-.14-.04-.13-.07-.27-.11-.4-33.25-4.22-52.93-33.98-58.44-64.52-.07.02-.14.05-.21.07-.56.17-1.13.2-1.69.14-1.06.1-2.14.06-3.16-.12,6.56,38.57,31.14,65.31,63.03,69.4.11-.23.24-.46.39-.67,0-.13,0-.26.02-.39Z"/>
  </g>
  <g>
    <path class="cls-1" d="M212.49,286.15c-.18-.06-.34-.16-.5-.24-1.07-.25-2.13-.49-3.2-.74-8.93,30.77-28.56,59.74-70.05,65.4,0,.37,0,.75,0,1.12,0,.1-.02.2-.02.3.05.42.05.84,0,1.26.08.47.11.95.03,1.49-.01.31-.07.62-.16.91,24.15-3.08,43.34-13.84,57.17-32.11,7.7-10.17,13.66-22.58,17.84-37.03-.39-.07-.76-.19-1.12-.37Z"/>
    <path class="cls-1" d="M125.32,356.33c0-.31.04-.6.07-.91-.14-.46-.24-.94-.24-1.48v-.34c0-.73.16-1.38.43-1.96,0-.03-.02-.06-.02-.1-.67.02-1.35.04-2.04.04-30.94,0-55.72-12.3-73.65-36.56-9.1-12.31-14.99-25.96-18.39-37.76-.54.14-1.09.21-1.65.25-.05.02-.1.02-.14.04-.23.09-.5.14-.78.17-.53.3-1.12.51-1.75.6-.18.02-.37.03-.57.03,3.54,12.39,9.72,26.74,19.25,39.64,18.66,25.25,45.52,38.59,77.67,38.59.61,0,1.21-.02,1.82-.03,0-.08-.02-.15-.02-.23Z"/>
    <path class="cls-1" d="M173.27,123.95c-24.47-44.62-49.98-81.39-50.24-81.76l-1.97-2.84-2.08,2.76c-.23.31-21.48,28.71-43.76,66.65.09.08.18.16.27.25.25.25.48.51.71.78,1.31.13,2.61.28,3.93.31.07,0,.12.02.19.02,17.89-30.37,34.83-54.25,40.59-62.19,6.42,9.47,27.4,41.02,47.87,78.34,1.46-.85,2.95-1.65,4.49-2.34Z"/>
    <path class="cls-1" d="M182.07,140.48c-.68.41-1.41.71-2.19.87-.39.35-.82.63-1.33.8-.36.19-.73.31-1.12.37,21.65,41.79,40.2,87.64,36.58,116.95.92-.27,1.9-.31,2.75-.08.89.24,1.59.7,2.14,1.27,0-.07.02-.14.03-.21,3.36-25.93-9.05-66.26-36.87-119.97Z"/>
    <path class="cls-1" d="M23.59,264.74c.29-.05.59-.07.9-.07.02,0,.05,0,.07,0,.17-.02.32-.06.5-.07.09,0,.18.01.26.01.02,0,.04,0,.05,0,.07,0,.13-.02.2-.02.66-.2,1.41-.3,2.13-.23.28-.07.56-.14.85-.2-.25-1.67-.45-3.27-.58-4.74-3.42-39.88,21.31-94.75,46.39-138.99-1.83-.1-3.65-.33-5.46-.67-.14.25-.28.49-.42.74-33.07,58.88-48.37,105.76-45.49,139.34.13,1.52.34,3.17.6,4.9Z"/>
  </g>
  <line class="cls-3" x1="68.45" y1="122.37" x2="45.85" y2="117.14"/>
  <line class="cls-3" x1="53.29" y1="108.48" x2="48.14" y2="117.4"/>
  <line class="cls-3" x1="24.59" y1="262.01" x2="54.21" y2="262.01"/>
  <line class="cls-3" x1="125" y1="327.31" x2="125" y2="356.59"/>
  <line class="cls-3" x1="241.01" y1="262.84" x2="213.61" y2="260.67"/>
  <line class="cls-2" x1="172.04" y1="121.87" x2="149.18" y2="135.06"/>
</svg>