<?xml version="1.0" encoding="UTF-8"?>
<svg id="Layer_1" data-name="Layer 1" xmlns="http://www.w3.org/2000/svg" viewBox="0 0 33 33">
  <defs>
    <style>
      .cls-1 {
        fill: #c99f80;
      }
    </style>
  </defs>
  <path class="cls-1" d="m4.71,0C2.11,0,0,2.11,0,4.71v23.57c0,2.6,2.11,4.71,4.71,4.71h23.57c2.6,0,4.71-2.11,4.71-4.71V4.71c0-2.6-2.11-4.71-4.71-4.71H4.71Zm21.16,12.32c0,6.39-4.86,13.75-13.75,13.75-2.74,0-5.28-.8-7.42-2.17.39.04.77.06,1.16.06,2.26,0,4.34-.77,6-2.06-2.12-.04-3.9-1.44-4.52-3.35.74.11,1.41.11,2.18-.09-2.21-.45-3.87-2.39-3.87-4.74v-.06c.64.36,1.39.58,2.18.61-.66-.44-1.21-1.04-1.58-1.74-.38-.7-.57-1.49-.57-2.28,0-.9.24-1.72.66-2.44,2.38,2.93,5.95,4.85,9.96,5.05-.68-3.28,1.77-5.94,4.71-5.94,1.39,0,2.64.58,3.53,1.52,1.09-.21,2.14-.61,3.06-1.16-.36,1.12-1.12,2.06-2.12,2.66.97-.1,1.92-.38,2.78-.75-.66.96-1.48,1.82-2.42,2.5.01.21.01.42.01.63Z"/>
</svg>